<svg width="414" height="120" viewBox="0 0 414 120" fill="none" xmlns="http://www.w3.org/2000/svg">
<path fill-rule="evenodd" clip-rule="evenodd" d="M10.2631 60C10.2631 36.6695 25.7104 16.9957 46.803 10.6094V0C19.9113 6.59227 -0.000976562 30.9528 -0.000976562 60C-0.000976562 89.0472 19.9113 113.408 46.803 120V109.391C25.7104 103.056 10.2631 83.3305 10.2631 60ZM83.6513 71.485C83.6513 59.4023 72.8275 57.0972 63.5971 55.1314C56.7358 53.6702 50.7549 52.3965 50.7549 47.4335C50.7549 43.2618 54.0908 40.5837 60.4545 40.5837C68.0499 40.5837 70.6673 44.2919 71.4884 49.2876H81.9577C81.0237 39.9121 75.6617 33.9925 66.7156 32.229V23.9485H56.4516V31.9334C46.6508 33.186 40.4909 38.9135 40.4909 47.4335C40.4909 59.6341 51.4368 62.1675 60.7105 64.3138C67.5261 65.8913 73.4385 67.2597 73.4385 72.103C73.4385 76.4292 69.2816 79.3133 62.2507 79.3133C53.0644 79.3133 50.0364 75.2447 48.9074 69.6309H38.6947C39.3562 79.8999 45.666 86.3269 56.4516 87.9307V96.0515H66.7156V88.0388C77.2419 86.674 83.6513 80.5288 83.6513 71.485ZM76.3639 10.6094V0C103.256 6.59227 123.168 30.9528 123.168 60C123.168 89.0472 103.256 113.408 76.3639 120V109.391C97.4565 103.004 112.904 83.3305 112.904 60C112.904 36.6695 97.4565 16.9957 76.3639 10.6094ZM383.618 87.3991C375.612 87.3991 370.377 85.0815 366.579 79.7253C363.5 75.0901 362.114 69.1159 362.114 60C362.114 50.8841 363.705 44.4463 367.195 39.6566C370.736 34.7124 375.817 32.7038 383.772 32.7038C393.368 32.7038 400.245 38.7296 401.99 48.515H413.999C412.511 33.0644 400.707 22.9184 383.977 22.9184C361.704 22.9184 349.695 36.0515 349.695 60C349.695 83.9485 361.396 97.0815 383.926 97.0815C400.553 97.0815 412.511 86.9871 413.999 71.588H401.99C400.245 81.4249 393.266 87.3991 383.618 87.3991ZM281.901 23.9485H306.843C329.013 23.9485 341.689 37.3391 341.689 60C341.689 82.661 329.013 96.0515 306.843 96.0515H281.901V23.9485ZM306.432 86.7296C314.284 86.7296 320.956 83.8455 324.856 78.7983C328.09 74.3176 329.27 69.1159 329.27 60C329.27 51.4507 328.09 46.1975 324.856 41.3048C321.367 36.2575 314.849 33.3734 306.432 33.3734H293.192V86.7296H306.432ZM189.884 72.6181C189.884 81.9399 183.417 87.3992 172.435 87.3992C161.452 87.3992 154.986 81.9399 154.986 72.6181V23.9485H143.696V72.206C143.696 88.1717 153.857 97.0816 172.435 97.0816C191.013 97.0816 201.174 88.1717 201.174 72.206V23.9485H189.884V72.6181ZM239.818 32.7038C230.17 32.7038 225.397 36.4635 225.397 42.7468C225.397 50.2539 234.087 52.0227 243.881 54.0164C256.53 56.5911 271.021 59.5408 271.021 75.7081C271.021 89.2532 260.808 97.0815 242.487 97.0815C223.088 97.0815 211.695 88.3262 211.233 72.7725H222.523C224.114 82.1974 231.042 87.3991 242.589 87.3991C252.853 87.3991 259.114 83.1245 259.114 76.3262C259.114 68.7344 250.333 66.9514 240.476 64.9497C227.864 62.3888 213.491 59.47 213.491 43.5708C213.491 30.8498 223.19 22.9184 240.28 22.9184C257.37 22.9184 267.428 31.0558 268.865 46.0429H256.959C255.419 36.824 250.082 32.7038 239.818 32.7038Z" fill="#EDEDED"/>
</svg>
